<?xml version="1.0" encoding="utf-8"?>
<!-- Generator: Adobe Illustrator 26.2.1, SVG Export Plug-In . SVG Version: 6.00 Build 0)  -->
<svg version="1.1" id="Symbol" xmlns="http://www.w3.org/2000/svg" xmlns:xlink="http://www.w3.org/1999/xlink" x="0px" y="0px"
	 viewBox="0 0 100 100" style="enable-background:new 0 0 100 100;" xml:space="preserve">
<style type="text/css">
	.st0{fill:#FFFFFF;}
</style>
<g>
	<path class="st0" d="M56.4,50c0,15.7-12.6,28.4-28.2,28.4S0,65.7,0,50s12.6-28.4,28.2-28.4S56.4,34.3,56.4,50"/>
	<path class="st0" d="M87.3,50c0,14.8-6.3,26.7-14.1,26.7c-7.8,0-14.1-12-14.1-26.7s6.3-26.7,14.1-26.7C81,23.3,87.3,35.2,87.3,50"
		/>
	<path class="st0" d="M100,50c0,13.2-2.2,23.9-5,23.9c-2.7,0-5-10.7-5-23.9s2.2-23.9,5-23.9C97.8,26.1,100,36.8,100,50"/>
</g>
</svg>
