<?xml version="1.0" encoding="utf-8"?>
<!-- Generator: Adobe Illustrator 26.2.1, SVG Export Plug-In . SVG Version: 6.00 Build 0)  -->
<svg version="1.1" id="Layer_1" xmlns="http://www.w3.org/2000/svg" xmlns:xlink="http://www.w3.org/1999/xlink" x="0px" y="0px"
	 viewBox="0 0 100 100" style="enable-background:new 0 0 100 100;" xml:space="preserve">
<style type="text/css">
	.st0{fill:#FFFFFF;}
</style>
<path class="st0" d="M50,12c-21,0-38,17-38,38s17,38,38,38s38-17,38-38S71,12,50,12z M30.7,51.3l0.2-0.3l9.9-15.5
	c0.1-0.2,0.5-0.2,0.6,0c1.6,3.7,3.1,8.3,2.4,11.2c-0.3,1.2-1.1,2.8-1.9,4.2c-0.1,0.2-0.2,0.4-0.4,0.6c-0.1,0.1-0.2,0.1-0.3,0.1H31
	C30.8,51.8,30.6,51.5,30.7,51.3z M74.8,56.6c0,0.1-0.1,0.3-0.2,0.3c-0.8,0.3-3.4,1.5-4.5,3c-2.8,3.9-4.9,9.4-9.7,9.4H40.7
	c-7,0-12.7-5.7-12.7-12.8v-0.2c0-0.2,0.2-0.3,0.3-0.3h11c0.2,0,0.4,0.2,0.4,0.4c-0.1,0.7,0.1,1.5,0.4,2.1c0.7,1.3,2,2.2,3.5,2.2H49
	v-4.3h-5.4c-0.3,0-0.4-0.3-0.3-0.5c0.1-0.1,0.1-0.2,0.2-0.3c0.5-0.7,1.2-1.9,2-3.1c0.5-0.9,1-1.8,1.4-2.7c0.1-0.2,0.1-0.3,0.2-0.5
	c0.1-0.3,0.2-0.6,0.3-0.9c0.1-0.2,0.1-0.5,0.2-0.7c0.2-0.8,0.3-1.6,0.3-2.5c0-0.3,0-0.7,0-1c0-0.4-0.1-0.7-0.1-1.1
	c0-0.3-0.1-0.7-0.2-1c-0.1-0.5-0.2-1-0.3-1.5l0-0.2c-0.1-0.3-0.2-0.7-0.3-1c-0.3-1.1-0.7-2.1-1-3.1c-0.1-0.4-0.3-0.8-0.4-1.1
	c-0.2-0.6-0.5-1.1-0.7-1.6c-0.1-0.2-0.2-0.4-0.3-0.6c-0.1-0.2-0.2-0.5-0.3-0.7c-0.1-0.2-0.2-0.3-0.2-0.5l-0.7-1.2
	c-0.1-0.2,0.1-0.4,0.2-0.3l4.2,1.1h0c0,0,0,0,0,0l0.5,0.2l0.6,0.2l0.2,0.1v-2.5c0-1.2,1-2.2,2.2-2.2c0.6,0,1.1,0.2,1.5,0.6
	c0.4,0.4,0.6,0.9,0.6,1.5v3.7l0.4,0.1c0,0,0.1,0,0.1,0.1c0.1,0.1,0.3,0.2,0.5,0.3c0.2,0.1,0.3,0.3,0.5,0.4c0.4,0.3,0.9,0.7,1.4,1.2
	c0.1,0.1,0.3,0.2,0.4,0.4c0.7,0.6,1.4,1.4,2.2,2.2c0.2,0.2,0.4,0.5,0.6,0.7c0.2,0.3,0.4,0.5,0.6,0.7c0.3,0.3,0.5,0.7,0.7,1
	c0.1,0.2,0.2,0.3,0.3,0.5c0.3,0.4,0.6,0.9,0.8,1.4c0.1,0.2,0.2,0.4,0.3,0.7c0.3,0.6,0.5,1.3,0.6,1.9c0,0.1,0.1,0.3,0.1,0.4v0
	c0,0.2,0.1,0.4,0.1,0.6c0.1,0.6,0,1.3-0.1,2c-0.1,0.3-0.1,0.5-0.2,0.8c-0.1,0.3-0.2,0.5-0.3,0.8c-0.2,0.5-0.5,1.1-0.8,1.6
	c-0.1,0.2-0.2,0.4-0.4,0.6c-0.1,0.2-0.3,0.4-0.4,0.6c-0.2,0.2-0.4,0.5-0.5,0.7c-0.2,0.2-0.3,0.5-0.5,0.7c-0.3,0.3-0.5,0.6-0.8,0.9
	c-0.2,0.2-0.3,0.4-0.5,0.5c-0.2,0.2-0.3,0.4-0.5,0.5c-0.3,0.3-0.5,0.5-0.7,0.6l-0.4,0.4c-0.1,0.1-0.1,0.1-0.2,0.1h-3.3v4.3h4.2
	c0.9,0,1.8-0.3,2.5-0.9c0.2-0.2,1.3-1.1,2.6-2.5c0-0.1,0.1-0.1,0.2-0.1l11.6-3.3c0.2-0.1,0.4,0.1,0.4,0.3V56.6L74.8,56.6z"/>
</svg>
