<?xml version="1.0" encoding="utf-8"?>
<!-- Generator: Adobe Illustrator 26.2.1, SVG Export Plug-In . SVG Version: 6.00 Build 0)  -->
<svg version="1.1" id="Layer_1" xmlns="http://www.w3.org/2000/svg" xmlns:xlink="http://www.w3.org/1999/xlink" x="0px" y="0px"
	 viewBox="0 0 100 100" style="enable-background:new 0 0 100 100;" xml:space="preserve">
<style type="text/css">
	.st0{fill:#FFFFFF;}
</style>
<g>
	<path class="st0" d="M92.2,23.7c-3.1,1.4-6.4,2.3-9.9,2.7c3.6-2.1,6.3-5.5,7.6-9.6c-3.3,2-7,3.4-11,4.2c-3.2-3.4-7.7-5.5-12.6-5.5
		c-9.6,0-17.3,7.7-17.3,17.3c0,1.4,0.2,2.7,0.4,3.9C35,36.1,22.2,29.2,13.7,18.8c-1.5,2.6-2.3,5.5-2.3,8.7c0,6,3.1,11.3,7.7,14.4
		c-2.8-0.1-5.5-0.9-7.8-2.2c0,0.1,0,0.1,0,0.2c0,8.4,6,15.4,13.9,17c-1.5,0.4-3,0.6-4.6,0.6c-1.1,0-2.2-0.1-3.3-0.3
		c2.2,6.9,8.6,11.9,16.2,12c-5.9,4.6-13.4,7.4-21.5,7.4c-1.4,0-2.8-0.1-4.1-0.2c7.7,4.9,16.7,7.8,26.5,7.8
		c31.8,0,49.2-26.4,49.2-49.2c0-0.8,0-1.5,0-2.2C86.9,30.2,89.8,27.2,92.2,23.7"/>
</g>
</svg>
